<?xml version="1.0" standalone="no"?><!DOCTYPE svg PUBLIC "-//W3C//DTD SVG 1.1//EN" "http://www.w3.org/Graphics/SVG/1.1/DTD/svg11.dtd"><svg t="1695549200680" class="icon" viewBox="0 0 1024 1024" version="1.1" xmlns="http://www.w3.org/2000/svg" p-id="11912" xmlns:xlink="http://www.w3.org/1999/xlink" width="16" height="16"><path d="M787.692308 157.538462a78.769231 78.769231 0 0 1 78.76923 78.76923v551.384616a78.769231 78.769231 0 0 1-78.76923 78.76923h-44.307693l-2.166153 2.166154-2.166154-2.166154H236.307692a78.769231 78.769231 0 0 1-78.76923-78.76923V236.307692a78.769231 78.769231 0 0 1 78.76923-78.76923h551.384616z m0 39.384615h-43.59877L196.923077 743.542154V787.692308a39.384615 39.384615 0 0 0 34.776615 39.108923L236.307692 827.076923h43.204923L827.076923 279.512615V236.307692a39.384615 39.384615 0 0 0-34.776615-39.108923L787.692308 196.923077z m39.384615 138.279385L335.202462 827.076923h166.754461L827.076923 502.311385V335.202462z m0 222.759384L557.686154 827.076923h169.393231L827.076923 727.04v-169.078154z m0 224.768L782.769231 827.076923H787.692308a39.384615 39.384615 0 0 0 39.108923-34.776615L827.076923 787.692308v-4.962462zM688.364308 196.923077h-168.566154L196.923077 521.806769v166.084923L688.364308 196.923077z m-224.059077 0H296.96L196.923077 296.999385v168.920615L464.305231 196.923077zM241.270154 196.923077H236.307692a39.384615 39.384615 0 0 0-39.108923 34.776615L196.923077 236.307692v5.001846L241.270154 196.923077z" fill="#C0C0C0" p-id="11913"></path></svg>