<?xml version="1.0" standalone="no"?><!DOCTYPE svg PUBLIC "-//W3C//DTD SVG 1.1//EN" "http://www.w3.org/Graphics/SVG/1.1/DTD/svg11.dtd"><svg t="1695553887001" class="icon" viewBox="0 0 1024 1024" version="1.1" xmlns="http://www.w3.org/2000/svg" p-id="23879" xmlns:xlink="http://www.w3.org/1999/xlink" width="16" height="16"><path d="M634.784 558.56c-40-5.104-81.296-10.256-122.576-12.56l0-79.008c-30.304-10.992-73.696-40.592-137.904-116.928-18.8-22.368-12.064-53.2 14.992-68.752 10.032-5.776 21.824-8.848 34.016-8.848 34.816 2.752 77.056 64.416 88.912 76.24l0-24.96c0-42.56-37.008-79.872-93.2-80.864-51.488 0-93.216 34.512-93.216 77.072l0 235.008c0 3.664 0.416 7.184 1.008 10.688-16.672 111.776-33.344 223.584-50.032 335.376-8.592 57.504 79.264 82.24 87.904 24.256 14.224-95.248 28.432-190.464 42.656-285.712 50.576-6.272 103.056-3.664 154.752 1.616-22.656 40.768-45.296 81.552-67.952 122.336-28.592 51.44 50.16 97.424 78.72 46.016 33.776-60.784 67.552-121.568 101.328-182.352C692.496 594.128 668.352 562.848 634.784 558.56z" fill="#d81e06" p-id="23880"></path><path d="M447.488 296.048c-13.408-16.112-37.392-18.304-53.488-4.848-16.128 13.424-18.288 37.392-4.864 53.504 81.488 97.712 121.44 107.936 142.016 106.112 4.336-0.368 7.824-1.296 10.624-2.032 29.328-7.744 42.896-19.216 87.376-98.368l-66.256-37.2c-21.216 37.776-23.952 43.696-38.432 58.432C511.008 363.264 483.712 339.488 447.488 296.048z" fill="#d81e06" p-id="23881"></path><path d="M630.8 369.808l-42.624 67.056c3.68 2.336 7.008 3.696 9.696 4.816 28.032 11.6 45.776 10.688 129.088-25.376l-30.192-69.728C657.008 363.776 651.248 366.848 630.8 369.808z" fill="#d81e06" p-id="23882"></path><path d="M635.52 342.208l17.536-30.528c-0.48-0.064-0.912-0.16-1.392-0.24 15.136-3.472 28.88-12.96 37.216-27.472 15.92-27.696 6.384-63.024-21.328-78.944-27.664-15.92-63.008-6.384-78.928 21.328-9.184 15.952-9.84 34.448-3.504 50.304l-15.792 27.504L635.52 342.208z" fill="#d81e06" p-id="23883"></path><path d="M844.304 318.832c-13.104-29.104-47.36-42.064-76.448-28.944-16.8 7.552-28.176 22.16-32.304 38.736l-28.912 13.024 31.344 69.6 32.08-14.464c-0.352-0.336-0.64-0.672-0.992-1.008 14.32 6.048 30.992 6.416 46.272-0.48C844.464 382.176 857.44 347.952 844.304 318.832z" fill="#d81e06" p-id="23884"></path><path d="M418.784 229.264c44.544 0 80.672-36.128 80.672-80.688 0-2.496-0.128-4.944-0.352-7.392L338.432 141.184C338.24 143.632 338.08 146.08 338.08 148.576 338.08 193.136 374.224 229.264 418.784 229.264z" fill="#d81e06" p-id="23885"></path><path d="M418.784 67.888c-33.216 0-61.712 20.08-74.112 48.736l148.192 0C480.496 87.968 451.984 67.888 418.784 67.888z" fill="#d81e06" p-id="23886"></path><path d="M330.24 150.768l-0.784-2.048 5.36-7.536 3.616 0c0.8-8.64 2.944-16.896 6.24-24.56l-25.072 0-1.056-0.72-0.512 0.72-4.24 0 0 5.952L309.248 128.96l-120.432 29.856 10.064 26.032 112.544-43.52-62.656 87.92 22.752 16.192 55.616-93.472L330.24 150.768z" fill="#d81e06" p-id="23887"></path></svg>