<?xml version="1.0" standalone="no"?><!DOCTYPE svg PUBLIC "-//W3C//DTD SVG 1.1//EN" "http://www.w3.org/Graphics/SVG/1.1/DTD/svg11.dtd"><svg t="1695553703630" class="icon" viewBox="0 0 1024 1024" version="1.1" xmlns="http://www.w3.org/2000/svg" p-id="22079" xmlns:xlink="http://www.w3.org/1999/xlink" width="16" height="16"><path d="M596.744828 211.862069m-105.931035 0a105.931034 105.931034 0 1 0 211.862069 0 105.931034 105.931034 0 1 0-211.862069 0Z" p-id="22080" fill="#1296db"></path><path d="M773.296552 706.206897m-70.62069 0a70.62069 70.62069 0 1 0 141.241379 0 70.62069 70.62069 0 1 0-141.241379 0Z" p-id="22081" fill="#1296db"></path><path d="M773.296552 529.655172h-120.055173l-67.089655-127.117241A84.744828 84.744828 0 0 0 508.468966 353.103448H349.572414a43.572966 43.572966 0 0 0-28.248276 14.124138l-91.806897 134.179311 60.027587 38.841379L367.227586 423.724138H420.193103l-60.027586 120.055172a87.640276 87.640276 0 0 0 38.84138 116.524138l130.648275 67.089655V882.758621h70.62069v-176.551724a37.075862 37.075862 0 0 0-17.655172-31.779311l-70.62069-38.841379c3.531034-3.531034 7.062069-10.593103 10.593103-14.124138l52.965518-102.4 31.77931 63.558621a37.075862 37.075862 0 0 0 31.77931 17.655172h141.24138v-70.62069zM317.793103 688.551724l-123.586206 208.331035 60.027586 35.310344 120.055172-201.268965c-3.531034 0-7.062069-3.531034-10.593103-3.531035a447.276138 447.276138 0 0 1-45.903449-38.841379z" p-id="22082" fill="#1296db"></path></svg>