<?xml version="1.0" standalone="no"?><!DOCTYPE svg PUBLIC "-//W3C//DTD SVG 1.1//EN" "http://www.w3.org/Graphics/SVG/1.1/DTD/svg11.dtd"><svg t="1695545258687" class="icon" viewBox="0 0 1024 1024" version="1.1" xmlns="http://www.w3.org/2000/svg" p-id="1759" xmlns:xlink="http://www.w3.org/1999/xlink" width="200" height="200"><path d="M682.666667 554.666667v170.666666H341.333333V554.666667z m256-213.333334H554.666667v170.666667h320a21.333333 21.333333 0 0 1 0 42.666667h-149.333334v170.666666h213.333334zM85.333333 554.666667v170.666666h213.333334V554.666667z m0-42.666667h426.666667V320a21.333333 21.333333 0 0 1 21.333333-21.333333h149.333334V85.333333H341.333333v213.333334h106.666667a21.333333 21.333333 0 0 1 0 42.666666H85.333333z m426.666667 256H85.333333v117.333333a53.393333 53.393333 0 0 0 53.333334 53.333334h373.333333z m42.666667 0v170.666667h330.666666a53.393333 53.393333 0 0 0 53.333334-53.333334v-117.333333zM298.666667 298.666667V85.333333H138.666667a53.393333 53.393333 0 0 0-53.333334 53.333334v160z m426.666666 0h213.333334V138.666667a53.393333 53.393333 0 0 0-53.333334-53.333334h-160z" fill="#5C5C66" p-id="1760"></path></svg>